<?xml version="1.0" encoding="UTF-8" standalone="no"?>
<!DOCTYPE svg PUBLIC "-//W3C//DTD SVG 1.1//EN" "http://www.w3.org/Graphics/SVG/1.1/DTD/svg11.dtd">
<svg version="1.1" xmlns="http://www.w3.org/2000/svg" xmlns:xlink="http://www.w3.org/1999/xlink" preserveAspectRatio="xMidYMid meet" viewBox="0 0 200 200" width="200" height="200"><defs><path d="M113.16 13.47L114.37 14.74L115.56 16.02L116.75 17.31L117.92 18.61L119.08 19.92L119.63 20.55L72.69 67.87L85.83 67.87L127.31 30.65L122.6 24.05L122.48 23.91L121.36 22.57L120.23 21.24L119.63 20.55L119.91 20.28L122.6 24.05L123.59 25.26L124.69 26.62L125.78 27.99L126.85 29.37L127.91 30.75L128.96 32.15L129.99 33.56L131.02 34.97L132.03 36.4L133.02 37.83L134 39.28L134.97 40.73L135.93 42.19L136.88 43.66L137.81 45.14L138.72 46.62L139.63 48.12L140.11 48.94L143.52 53.7L143.07 54.11L143.11 54.18L143.94 55.71L144.77 57.25L145.58 58.81L146.37 60.36L147.15 61.93L147.92 63.5L148.67 65.08L149.41 66.67L150.14 68.27L150.85 69.87L151.84 72.14L152.85 74.54L153.78 76.96L154.63 79.39L155.4 81.84L156.1 84.3L156.72 86.78L157.26 89.26L157.73 91.76L158.12 94.26L158.44 96.76L158.67 99.27L158.84 101.78L158.93 104.29L158.94 106.79L158.88 109.3L158.75 111.79L158.54 114.28L158.26 116.77L157.91 119.24L157.48 121.7L156.98 124.15L156.41 126.58L155.77 128.99L155.06 131.39L154.27 133.76L153.42 136.11L152.49 138.44L151.5 140.75L150.43 143.03L149.29 145.27L148.09 147.49L146.82 149.68L145.47 151.83L144.06 153.95L142.59 156.03L141.04 158.07L139.43 160.07L137.75 162.03L136 163.94L134.19 165.81L133.88 166.13L133.6 166.47L133.34 166.81L133.1 167.16L132.88 167.52L132.68 167.88L132.51 168.26L132.35 168.63L132.22 169.02L132.1 169.4L132.01 169.79L131.94 170.19L131.88 170.58L131.85 170.98L131.83 171.38L131.84 171.77L131.86 172.17L131.91 172.56L131.97 172.95L132.05 173.34L132.15 173.72L132.27 174.09L132.41 174.46L132.56 174.83L132.73 175.19L132.92 175.53L133.13 175.87L133.35 176.2L133.6 176.52L133.85 176.83L134.13 177.12L134.42 177.41L134.73 177.68L135.05 177.93L135.39 178.17L135.75 178.39L136.12 178.6L136.51 178.79L136.91 178.96L137.33 179.11L200 200L0 199L64.09 178.49L64.46 178.36L64.82 178.21L65.17 178.05L65.51 177.87L65.83 177.67L66.14 177.46L66.43 177.24L66.71 177L66.98 176.76L67.23 176.5L67.47 176.22L67.69 175.94L67.9 175.65L68.09 175.35L68.27 175.04L68.43 174.73L68.58 174.4L68.71 174.07L68.83 173.74L68.93 173.4L69.01 173.05L69.07 172.7L69.12 172.35L69.15 172L69.17 171.64L69.17 171.29L69.15 170.93L69.11 170.57L69.06 170.22L68.98 169.87L68.89 169.52L68.78 169.17L68.66 168.82L68.51 168.48L68.34 168.15L68.16 167.82L67.96 167.5L67.74 167.18L67.49 166.88L67.23 166.58L65.52 164.67L63.88 162.72L62.3 160.73L60.79 158.7L59.35 156.63L57.97 154.53L56.66 152.4L55.42 150.23L54.24 148.03L53.13 145.81L52.09 143.56L51.12 141.28L50.21 138.98L49.38 136.65L48.61 134.31L47.91 131.94L47.28 129.56L46.73 127.17L46.24 124.75L45.82 122.33L45.47 119.89L45.19 117.45L44.99 115L44.85 112.54L44.79 110.07L44.8 107.61L44.88 105.14L45.03 102.67L45.25 100.2L45.55 97.74L45.92 95.28L46.36 92.83L46.88 90.39L47.47 87.95L48.13 85.53L48.87 83.12L49.68 80.72L50.57 78.34L51.53 75.98L52.57 73.64L60.2 57.11L60.94 55.52L61.69 53.94L62.46 52.36L63.24 50.79L64.04 49.23L64.85 47.68L65.67 46.14L66.51 44.6L67.36 43.07L68.22 41.55L69.1 40.04L69.99 38.53L70.89 37.03L71.8 35.55L72.73 34.07L73.67 32.59L74.63 31.13L75.6 29.67L76.58 28.23L77.57 26.79L78.57 25.36L79.59 23.94L80.62 22.53L81.67 21.13L82.72 19.74L83.79 18.35L84.87 16.98L85.96 15.61L87.06 14.26L88.18 12.91L89.31 11.58L90.45 10.25L91.6 8.93L92.77 7.63L93.94 6.33L95.13 5.04L96.33 3.77L97.54 2.5L98.77 1.25L100 0L111.94 12.21L113.16 13.47ZM102.04 90.93L143.07 54.11L142.26 52.65L141.4 51.13L140.52 49.62L140.11 48.94L136.11 43.33L88.89 90.93L102.04 90.93Z" id="a5tUslZw2r"></path></defs><g><g><g><use xlink:href="#a5tUslZw2r" opacity="1" fill="#173294" fill-opacity="1"></use></g></g></g></svg>