<?xml version="1.0" encoding="UTF-8" standalone="no"?>
<!DOCTYPE svg PUBLIC "-//W3C//DTD SVG 1.1//EN" "http://www.w3.org/Graphics/SVG/1.1/DTD/svg11.dtd">
<svg version="1.1" xmlns="http://www.w3.org/2000/svg" xmlns:xlink="http://www.w3.org/1999/xlink" preserveAspectRatio="xMidYMid meet" viewBox="0 0 200 200" width="200" height="200"><defs><path d="M200 198.99L150 171.97C150 169.82 150 168.47 150 167.93C150 134.99 142.84 102.45 129.01 72.55C128.47 71.4 127.14 68.51 125 63.89C125.53 63.32 125.86 62.97 125.99 62.83C139.43 48.3 139.09 25.78 125.21 11.67C120.17 6.54 128.68 15.19 123.35 9.77C110.52 -3.27 89.48 -3.27 76.65 9.77C71.32 15.19 79.83 6.54 74.79 11.67C60.91 25.78 60.57 48.3 74.01 62.83C74.14 62.97 74.47 63.32 75 63.89C72.86 68.51 71.53 71.4 70.99 72.55C57.16 102.45 50 134.99 50 167.93C50 168.47 50 169.82 50 171.97L0 197.91L200 198.99Z" id="c1oa1z70TT"></path></defs><g><g><g><use xlink:href="#c1oa1z70TT" opacity="1" fill="#173294" fill-opacity="1"></use></g></g></g></svg>