<?xml version="1.0" encoding="UTF-8" standalone="no"?>
<!DOCTYPE svg PUBLIC "-//W3C//DTD SVG 1.1//EN" "http://www.w3.org/Graphics/SVG/1.1/DTD/svg11.dtd">
<svg version="1.1" xmlns="http://www.w3.org/2000/svg" xmlns:xlink="http://www.w3.org/1999/xlink" preserveAspectRatio="xMidYMid meet" viewBox="0 0 200 200" width="200" height="200"><defs><path d="M49.38 1.36L48.95 2.53L48.6 3.69L48.34 4.85L48.16 6L48.05 7.14L48.02 8.28L48.07 9.39L48.19 10.5L48.37 11.58L48.63 12.64L48.94 13.68L49.32 14.69L49.76 15.68L50.26 16.64L50.81 17.56L51.41 18.45L52.06 19.3L52.77 20.11L53.51 20.88L54.3 21.61L55.13 22.29L56 22.92L56.9 23.51L57.84 24.03L58.81 24.51L59.8 24.92L60.83 25.28L61.87 25.57L62.94 25.8L64.03 25.96L65.13 26.05L66.25 26.06L67.38 26.01L68.52 25.88L69.67 25.67L70.82 25.37L71.97 25L73.13 24.54L74.28 23.99L75 23.62L75 23.5L75.02 22.53L75.08 21.57L75.17 20.62L75.31 19.69L75.48 18.76L75.68 17.85L75.92 16.96L76.2 16.07L76.51 15.2L76.85 14.35L77.22 13.52L77.62 12.7L78.06 11.9L78.52 11.12L79.01 10.36L79.53 9.62L80.08 8.9L80.66 8.21L81.26 7.53L81.88 6.88L82.53 6.26L83.21 5.66L83.9 5.08L84.62 4.53L85.36 4.01L86.12 3.52L86.9 3.06L87.7 2.62L88.52 2.22L89.35 1.85L90.2 1.51L91.07 1.2L91.96 0.92L92.85 0.68L93.76 0.48L94.69 0.31L95.62 0.17L96.57 0.08L97.53 0.02L98.5 0L100 0L101.03 0.02L102.05 0.08L103.06 0.19L104.06 0.33L105.04 0.51L106.01 0.73L106.96 0.98L107.9 1.27L108.83 1.6L109.73 1.96L110.62 2.36L111.49 2.79L112.34 3.25L113.17 3.75L113.98 4.27L114.76 4.82L115.53 5.41L116.27 6.02L116.99 6.66L117.68 7.32L118.34 8.01L118.98 8.73L119.59 9.47L120.18 10.24L120.73 11.02L121.25 11.83L121.75 12.66L122.21 13.51L122.64 14.38L123.04 15.27L123.4 16.17L123.73 17.1L124.02 18.04L124.27 18.99L124.49 19.96L124.67 20.94L124.81 21.94L124.92 22.95L124.98 23.97L125 25L125 25.13L125.05 25.15L126.25 25.71L127.45 26.17L128.66 26.55L129.86 26.84L131.05 27.04L132.23 27.17L133.41 27.21L134.57 27.18L135.71 27.08L136.84 26.9L137.94 26.65L139.02 26.34L140.08 25.96L141.11 25.52L142.11 25.02L143.08 24.46L144.01 23.85L144.9 23.18L145.76 22.47L146.57 21.7L147.33 20.9L148.05 20.05L148.72 19.15L149.34 18.23L149.9 17.26L150.4 16.26L150.85 15.24L151.23 14.18L151.55 13.1L151.8 11.99L151.98 10.87L152.09 9.72L152.13 8.56L152.09 7.39L151.97 6.21L151.77 5.01L151.48 3.81L151.11 2.61L150.65 1.41L150.1 0.2L150 0L175 0L175 48.41L175 48.5L175 48.59L174.99 48.68L174.99 48.77L174.98 48.85L174.97 48.94L174.96 49.03L174.94 49.11L174.93 49.2L174.91 49.28L174.9 49.37L174.88 49.45L174.86 49.54L174.83 49.62L174.81 49.7L174.78 49.79L174.76 49.87L174.73 49.95L174.7 50.03L174.66 50.11L174.63 50.19L174.59 50.27L174.56 50.35L174.52 50.43L174.48 50.5L174.44 50.58L174.39 50.66L174.35 50.73L174.3 50.8L174.26 50.88L174.21 50.95L174.16 51.02L174.11 51.09L174.05 51.16L174 51.23L173.94 51.29L173.88 51.36L173.83 51.43L173.77 51.49L173.7 51.55L153.18 72.18L153.04 72.33L152.9 72.48L152.76 72.64L152.63 72.8L152.5 72.96L152.37 73.13L152.26 73.3L152.14 73.47L152.03 73.64L151.93 73.82L151.83 74L151.73 74.18L151.64 74.36L151.56 74.54L151.47 74.73L151.4 74.92L151.33 75.11L151.26 75.3L151.2 75.5L151.14 75.69L151.09 75.89L151.04 76.09L151 76.29L150.97 76.49L150.93 76.69L150.91 76.89L150.89 77.09L150.87 77.3L150.86 77.5L150.85 77.7L150.85 77.91L150.86 78.12L150.87 78.32L150.88 78.53L150.9 78.73L150.93 78.94L150.96 79.14L151 79.35L151.04 79.55L151.09 79.76L167.55 145.94L167.93 147.4L168.32 148.86L168.74 150.31L169.17 151.75L169.63 153.19L170.1 154.62L170.6 156.04L171.11 157.45L171.65 158.85L172.2 160.25L172.77 161.64L173.36 163.02L173.97 164.39L174.6 165.75L175.25 167.1L175.91 168.44L176.6 169.77L177.3 171.09L178.02 172.41L178.76 173.71L179.52 175L180.3 176.28L181.09 177.55L181.9 178.81L182.73 180.06L183.58 181.29L184.44 182.52L185.32 183.73L186.22 184.93L187.13 186.12L188.07 187.3L189.02 188.46L189.98 189.61L190.96 190.75L191.96 191.88L192.98 192.99L194.01 194.09L195.06 195.17L196.12 196.24L197.2 197.3L200 200L0 200L24.74 177.33L24.82 177.26L24.89 177.18L24.97 177.11L25.04 177.04L25.11 176.96L25.18 176.88L25.25 176.81L25.32 176.73L25.39 176.65L25.45 176.57L25.52 176.49L25.58 176.41L25.64 176.32L25.7 176.24L25.76 176.15L25.82 176.07L25.88 175.98L25.94 175.89L25.99 175.81L26.04 175.72L26.09 175.63L26.15 175.54L26.19 175.44L26.24 175.35L26.29 175.26L26.33 175.17L26.38 175.07L26.42 174.98L26.46 174.88L26.5 174.79L26.54 174.69L26.58 174.59L26.61 174.49L26.64 174.4L26.68 174.3L26.71 174.2L26.74 174.1L26.76 174L26.79 173.9L26.82 173.79L49.24 79.59L49.27 79.44L49.3 79.29L49.33 79.14L49.35 78.99L49.37 78.83L49.38 78.68L49.39 78.53L49.4 78.38L49.41 78.23L49.41 78.08L49.4 77.92L49.4 77.77L49.38 77.62L49.37 77.47L49.35 77.32L49.33 77.17L49.31 77.03L49.28 76.88L49.25 76.73L49.21 76.58L49.17 76.44L49.13 76.3L49.08 76.15L49.03 76.01L48.98 75.87L48.92 75.73L48.86 75.59L48.8 75.45L48.73 75.32L48.66 75.18L48.59 75.05L48.51 74.92L48.43 74.79L48.35 74.66L48.26 74.54L48.18 74.41L48.08 74.29L47.99 74.17L47.89 74.05L47.78 73.94L27.2 51.22L27.16 51.18L27.12 51.13L27.08 51.08L27.04 51.03L27 50.98L26.96 50.93L26.93 50.88L26.89 50.83L26.86 50.77L26.82 50.72L26.79 50.67L26.76 50.61L26.73 50.56L26.7 50.5L26.67 50.45L26.65 50.39L26.62 50.34L26.59 50.28L26.57 50.22L26.55 50.16L26.53 50.11L26.51 50.05L26.49 49.99L26.47 49.93L26.45 49.87L26.43 49.81L26.42 49.75L26.4 49.69L26.39 49.63L26.38 49.56L26.37 49.5L26.36 49.44L26.35 49.38L26.34 49.32L26.33 49.25L26.33 49.19L26.33 49.13L26.32 49.07L26.32 49L26.32 48.94L26.32 0L50 0L49.9 0.2L49.38 1.36ZM78.9 116.84L102.56 162.87L101.89 165.46L102.89 163.51L102.56 162.87L102.89 161.61L78.9 69.35L53.9 165.46L78.9 116.84ZM103.22 162.87L102.89 163.51L103.9 165.46L103.22 162.87L126.89 116.84L151.89 165.46L126.89 69.35L102.89 161.61L103.22 162.87Z" id="dstfULgFW" border= "5px black" fill= "white"></path></defs><g><g><g><use xlink:href="#dstfULgFW"></use></g></g></g></svg>