<?xml version="1.0" encoding="UTF-8" standalone="no"?>
<!DOCTYPE svg PUBLIC "-//W3C//DTD SVG 1.1//EN" "http://www.w3.org/Graphics/SVG/1.1/DTD/svg11.dtd">
<svg version="1.1" xmlns="http://www.w3.org/2000/svg" xmlns:xlink="http://www.w3.org/1999/xlink" preserveAspectRatio="xMidYMid meet" viewBox="0 0 200 200" width="200" height="200"><defs><path d="M146.96 171.74C146.96 169.91 146.96 168.75 146.96 168.29C146.96 140.15 140.84 112.36 129.03 86.81C128.57 85.83 127.43 83.36 125.6 79.41C126.06 78.93 126.34 78.63 126.45 78.51C137.93 66.1 137.64 46.86 125.78 34.8C121.48 30.42 128.75 37.81 124.2 33.18C113.24 22.04 95.26 22.04 84.3 33.18C79.75 37.81 87.02 30.42 82.71 34.8C70.86 46.86 70.57 66.1 82.05 78.51C82.16 78.63 82.44 78.93 82.89 79.41C81.06 83.36 79.93 85.83 79.47 86.81C67.65 112.36 61.54 140.15 61.54 168.29C61.54 168.75 61.54 169.91 61.54 171.74C58.69 173.22 44.45 180.61 18.82 193.9L189.67 194.83C164.05 180.98 149.81 173.28 146.96 171.74Z" id="a1tc9I4d7d"></path></defs><g><g><g><use xlink:href="#a1tc9I4d7d" opacity="1" fill="#421557" fill-opacity="1"></use><g><use xlink:href="#a1tc9I4d7d" opacity="1" fill-opacity="0" stroke="#dedede" stroke-width="5" stroke-opacity="1"></use></g></g></g></g></svg>