<?xml version="1.0" encoding="UTF-8" standalone="no"?>
<!DOCTYPE svg PUBLIC "-//W3C//DTD SVG 1.1//EN" "http://www.w3.org/Graphics/SVG/1.1/DTD/svg11.dtd">
<svg version="1.1" xmlns="http://www.w3.org/2000/svg" xmlns:xlink="http://www.w3.org/1999/xlink" preserveAspectRatio="xMidYMid meet" viewBox="0 0 200 200" width="200" height="200"><defs><path d="M200 38.6L150 84.72L175 130.83L150 153.89L200 200L0 199.08L50 153.89L26.32 130.83L50 86.6L1.37 39.93L1.35 39.91L1.34 39.89L1.32 39.87L1.3 39.83L1.29 39.8L1.28 39.78L1.28 39.76L1.27 39.74L1.27 39.67L1.28 39.65L1.28 39.61L1.33 39.51L1.36 39.48L1.37 39.46L1.39 39.45L1.42 39.42L1.48 39.39L1.5 39.39L1.52 39.38L1.54 39.38L1.56 39.37L1.63 39.37L1.66 39.38L1.68 39.38L1.71 39.39L1.73 39.4L50 61.66L28.05 18.93L28.01 18.83L28 18.78L27.99 18.74L27.98 18.69L27.98 18.55L27.99 18.51L28 18.46L28.01 18.42L28.07 18.3L28.09 18.27L28.12 18.23L28.14 18.2L28.17 18.17L28.21 18.14L28.24 18.11L28.28 18.09L28.31 18.07L28.43 18.01L28.47 18L28.52 17.99L28.56 17.98L28.69 17.98L28.73 17.99L28.78 18L28.82 18.01L28.87 18.02L28.91 18.04L28.95 18.07L28.99 18.09L29.04 18.13L29.08 18.16L75 61.66L50 15.55L84.93 47.76L77.18 72.32L100 135.44L122.81 72.32L115.06 47.76L150 15.55L125 59.95L175 15.55L148.14 61.66L200 38.6ZM138.91 123.35L126.66 135.44L150 158.5L138.91 123.35L150 112.39L125 66.27L122.81 72.32L138.91 123.35ZM61.26 122.78L50 158.5L75 135.44L61.26 122.78L77.18 72.32L75 66.27L50 112.39L61.26 122.78Z" id="a1IkMBw4VJ"></path></defs><g><g><g><use xlink:href="#a1IkMBw4VJ" opacity="1" fill="#421557" fill-opacity="1"></use><g><use xlink:href="#a1IkMBw4VJ" opacity="1" fill-opacity="0" stroke="#dedede" stroke-width="5" stroke-opacity="1"></use></g></g></g></g></svg>