<?xml version="1.0" encoding="UTF-8" standalone="no"?>
<!DOCTYPE svg PUBLIC "-//W3C//DTD SVG 1.1//EN" "http://www.w3.org/Graphics/SVG/1.1/DTD/svg11.dtd">
<svg version="1.1" xmlns="http://www.w3.org/2000/svg" xmlns:xlink="http://www.w3.org/1999/xlink" preserveAspectRatio="xMidYMid meet" viewBox="0 0 200 200" width="200" height="200"><defs><path d="M114.28 17.49L115.38 18.86L117.54 21.62L117.78 21.93L119.49 22.25L121.34 22.66L123.17 23.13L124.98 23.66L126.77 24.24L128.53 24.88L130.26 25.58L131.97 26.33L133.65 27.13L135.3 27.99L136.93 28.9L138.51 29.86L140.07 30.87L141.59 31.93L143.08 33.04L144.53 34.2L145.95 35.4L147.32 36.65L148.65 37.94L149.95 39.28L151.2 40.65L152.41 42.07L153.57 43.54L154.68 45.04L155.75 46.58L156.77 48.15L157.74 49.77L158.32 50.8L139.62 56.49L139.96 57.15L140.75 58.72L141.52 60.29L143.04 63.45L143.77 65.05L144.5 66.64L145.22 68.25L145.92 69.85L146.61 71.47L147.28 73.09L147.95 74.72L148.6 76.35L149.31 78.13L135.6 88.19L153.28 88.19L149.31 78.13L164.4 67.06L163.57 63.91L163.04 62.03L162.45 60.18L161.81 58.37L161.1 56.58L160.34 54.83L159.53 53.11L158.66 51.42L158.32 50.8L197.87 38.77L197.99 38.74L198.23 38.7L198.46 38.7L198.68 38.74L198.88 38.8L198.98 38.84L199.07 38.89L199.25 39.01L199.33 39.07L199.4 39.14L199.54 39.3L199.6 39.38L199.7 39.56L199.74 39.66L199.78 39.75L199.84 39.95L199.86 40.05L199.87 40.16L199.87 40.36L199.86 40.47L199.85 40.57L199.82 40.67L199.79 40.78L199.75 40.88L199.7 40.97L199.65 41.07L199.51 41.25L199.42 41.34L199.33 41.42L199.23 41.5L164.4 67.06L167 76.93L167.14 77.48L167.27 78.03L167.51 79.13L167.61 79.69L167.71 80.24L167.87 81.36L167.94 81.92L168 82.47L168.05 83.03L168.13 84.15L168.15 84.71L168.16 85.27L168.17 85.84L168.17 86.4L168.16 86.96L168.14 87.52L168.11 88.07L168.07 88.63L167.97 89.75L167.91 90.31L167.83 90.86L167.75 91.42L167.66 91.97L167.56 92.52L167.34 93.62L167.08 94.72L166.78 95.8L166.62 96.34L166.45 96.88L166.27 97.42L166.09 97.95L165.69 99.01L161.48 109.66L161.07 110.74L160.69 111.83L160.33 112.92L160.01 114.03L159.72 115.13L159.46 116.24L159.23 117.36L159.03 118.48L158.86 119.6L158.72 120.72L158.6 121.84L158.52 122.97L158.47 124.09L158.44 125.22L158.45 126.34L158.48 127.47L158.54 128.59L158.63 129.71L158.75 130.82L158.9 131.93L159.08 133.04L159.29 134.15L159.52 135.24L159.79 136.33L160.08 137.42L160.4 138.5L160.75 139.57L161.12 140.63L161.53 141.68L161.96 142.73L162.42 143.76L162.91 144.79L163.42 145.8L163.96 146.8L164.53 147.79L165.13 148.76L165.76 149.72L166.41 150.67L167.09 151.61L167.79 152.52L169.97 155.27L152.29 177.63L169.97 200L28.52 200L47.13 177.63L30.21 155.27L32.36 152.43L33.04 151.51L33.68 150.58L34.3 149.64L34.89 148.69L35.46 147.72L36 146.74L36.51 145.75L36.99 144.75L37.45 143.74L37.88 142.71L38.28 141.68L38.66 140.64L39 139.6L39.32 138.54L39.61 137.48L39.88 136.41L40.12 135.34L40.32 134.26L40.51 133.17L40.66 132.09L40.78 130.99L40.88 129.9L40.95 128.8L40.99 127.7L41 126.6L40.98 125.5L40.94 124.4L40.86 123.3L40.76 122.2L40.63 121.1L40.47 120L40.28 118.91L40.07 117.82L39.82 116.73L39.54 115.65L39.24 114.57L38.9 113.49L38.54 112.43L38.15 111.37L37.73 110.31L31.2 94.62L31.07 94.31L30.95 93.99L30.83 93.68L30.61 93.04L30.51 92.72L30.42 92.4L30.33 92.07L30.24 91.75L30.17 91.42L30.09 91.09L30.03 90.76L29.96 90.44L29.86 89.78L29.81 89.44L29.77 89.11L29.71 88.45L29.68 88.11L29.67 87.78L29.65 87.44L29.65 86.44L29.66 86.11L29.67 85.77L29.7 85.44L29.72 85.1L29.75 84.77L29.79 84.44L29.83 84.1L29.88 83.77L30.06 82.78L30.13 82.45L30.29 81.79L30.38 81.46L33.97 68.55L34.58 66.46L34.67 66.18L0.63 41.38L0.53 41.31L0.44 41.23L0.36 41.14L0.29 41.05L0.17 40.87L0.13 40.77L0.09 40.68L0.03 40.48L0.01 40.38L0.01 40.27L0 40.17L0.02 39.97L0.06 39.77L0.09 39.68L0.13 39.58L0.17 39.49L0.22 39.4L0.27 39.32L0.33 39.23L0.39 39.16L0.46 39.08L0.54 39.01L0.61 38.95L0.7 38.89L0.78 38.83L0.87 38.79L0.97 38.74L1.06 38.71L1.17 38.68L1.27 38.66L1.38 38.65L1.6 38.65L1.72 38.66L1.96 38.72L41.91 50.82L41.75 51.05L40.65 52.85L39.6 54.68L38.62 56.55L37.69 58.46L36.82 60.4L36.01 62.39L35.26 64.41L34.67 66.18L51.72 78.6L48.13 88.19L64.87 88.19L51.72 78.6L52.47 76.58L53.73 73.3L54.38 71.67L55.04 70.04L55.72 68.42L56.4 66.81L57.1 65.2L57.81 63.6L58.54 62L59.28 60.41L60.03 58.83L60.79 57.25L61.1 56.63L41.91 50.82L42.91 49.3L44.12 47.6L45.38 45.93L46.69 44.31L48.05 42.74L49.46 41.21L50.91 39.73L52.41 38.3L53.96 36.92L55.55 35.59L57.17 34.31L58.84 33.08L60.55 31.91L62.29 30.79L64.07 29.72L65.89 28.72L67.74 27.77L69.62 26.88L71.53 26.05L73.47 25.28L75.44 24.57L77.43 23.92L79.45 23.34L81.5 22.82L81.79 22.76L82.76 21.47L83.82 20.08L84.89 18.69L85.98 17.31L87.08 15.94L99.93 0L113.17 16.12L114.28 17.49ZM94.2 21.13L92.04 21.24L89.89 21.42L87.76 21.67L85.65 21.99L83.57 22.37L81.79 22.76L81.7 22.88L80.66 24.29L79.64 25.71L78.62 27.14L77.61 28.57L76.62 30.02L75.64 31.47L74.67 32.93L73.71 34.4L72.77 35.87L71.83 37.35L70.91 38.84L70 40.34L69.1 41.84L68.21 43.35L67.34 44.87L66.48 46.39L65.63 47.92L64.79 49.46L63.15 52.56L62.35 54.12L61.57 55.68L61.1 56.63L91.47 65.82L91.47 110.55L64.87 110.55L64.87 132.91L91.47 132.91L91.47 155.27L108.9 155.27L108.9 132.91L135.6 132.91L135.6 110.55L108.9 110.1L108.9 65.82L139.62 56.49L139.16 55.59L138.35 54.04L137.52 52.49L136.69 50.95L135.84 49.42L134.98 47.89L134.11 46.37L133.23 44.86L132.33 43.35L131.43 41.85L130.51 40.36L129.58 38.87L128.64 37.39L127.69 35.92L125.75 33L124.76 31.55L123.76 30.11L122.75 28.68L121.73 27.25L120.7 25.83L119.66 24.42L118.6 23.02L117.78 21.93L117.62 21.9L115.73 21.62L113.82 21.39L111.9 21.23L109.96 21.13L108.01 21.1L96.37 21.1L94.2 21.13Z" id="a8yR8IGVU"></path></defs><g><g><g><use xlink:href="#a8yR8IGVU" opacity="1" fill="#421557" fill-opacity="1"></use><g><use xlink:href="#a8yR8IGVU" opacity="1" fill-opacity="0" stroke="#dedede" stroke-width="2" stroke-opacity="1"></use></g></g></g></g></svg>