<?xml version="1.0" encoding="UTF-8" standalone="no"?>
<!DOCTYPE svg PUBLIC "-//W3C//DTD SVG 1.1//EN" "http://www.w3.org/Graphics/SVG/1.1/DTD/svg11.dtd">
<svg version="1.1" xmlns="http://www.w3.org/2000/svg" xmlns:xlink="http://www.w3.org/1999/xlink" preserveAspectRatio="xMidYMid meet" viewBox="0 0 200 200" width="200" height="200"><defs><path d="M169.72 68.2L170.01 68.49L170.29 68.79L170.55 69.1L170.8 69.42L171.03 69.74L171.25 70.07L171.46 70.4L171.65 70.75L171.83 71.1L172 71.45L172.15 71.81L172.29 72.17L172.41 72.54L172.52 72.91L172.61 73.28L172.69 73.66L172.76 74.03L172.81 74.42L172.85 74.8L172.88 75.18L172.89 75.56L172.89 75.95L172.87 76.33L172.84 76.72L172.79 77.1L172.73 77.48L172.66 77.86L172.57 78.23L172.46 78.61L172.35 78.98L172.22 79.35L172.07 79.71L171.91 80.07L171.74 80.42L171.55 80.77L171.13 81.45L170.89 81.78L170.65 82.1L170.39 82.42L153.91 101.6L152.99 102.7L152.1 103.82L151.24 104.96L150.42 106.11L149.63 107.29L148.87 108.48L148.14 109.69L147.45 110.91L146.78 112.15L146.16 113.41L145.56 114.68L145 115.96L144.47 117.25L143.97 118.55L143.51 119.87L143.08 121.2L142.69 122.53L142.33 123.88L142 125.23L141.71 126.59L141.46 127.96L141.23 129.33L141.05 130.71L140.89 132.09L140.78 133.48L140.69 134.87L140.65 136.27L140.64 137.67L140.66 139.06L140.72 140.46L140.82 141.86L140.95 143.26L141.11 144.66L141.32 146.05L141.56 147.45L141.84 148.84L142.15 150.22L142.5 151.61L142.89 152.98L143.31 154.35L149.67 173.98L149.69 174.03L149.7 174.08L149.74 174.18L149.76 174.22L149.78 174.27L149.8 174.31L149.83 174.36L149.85 174.4L149.87 174.45L149.9 174.49L149.93 174.54L149.95 174.58L150.16 174.86L150.23 174.93L150.26 174.97L150.3 175.01L150.34 175.04L150.37 175.08L150.45 175.14L150.49 175.18L150.65 175.3L150.69 175.32L150.73 175.35L150.78 175.38L150.82 175.4L150.86 175.43L150.91 175.45L150.96 175.48L200 200L0 200L49.56 175.22L49.58 175.2L49.6 175.19L49.62 175.17L49.64 175.16L49.65 175.14L49.67 175.13L49.69 175.11L49.7 175.09L49.72 175.08L49.73 175.06L49.75 175.04L49.83 174.88L49.84 174.85L49.84 174.83L49.86 174.79L49.86 174.74L49.87 174.72L49.87 174.58L49.86 174.56L49.86 174.51L49.85 174.48L49.84 174.46L49.43 173L49.04 171.54L48.67 170.09L48.33 168.66L48 167.23L47.71 165.81L47.43 164.4L47.19 163L46.96 161.61L46.76 160.23L46.58 158.86L46.42 157.49L46.29 156.14L46.18 154.8L46.1 153.46L46.04 152.14L46 150.82L45.99 149.51L46 148.22L46.03 146.93L46.09 145.65L46.17 144.38L46.28 143.12L46.4 141.87L46.56 140.63L46.73 139.39L46.93 138.17L47.15 136.96L47.4 135.75L47.67 134.56L47.96 133.37L48.28 132.2L48.62 131.03L48.99 129.87L49.37 128.72L49.79 127.58L50.22 126.45L50.68 125.33L51.16 124.22L51.67 123.12L52.21 122.02L52.77 120.92L53.35 119.84L53.96 118.76L54.59 117.69L55.25 116.63L55.93 115.59L56.63 114.55L57.36 113.52L58.11 112.5L58.89 111.49L59.69 110.49L60.52 109.49L61.36 108.51L62.24 107.54L63.14 106.58L64.06 105.62L65 104.68L65.97 103.74L66.97 102.82L67.98 101.9L69.03 100.99L70.09 100.09L71.18 99.21L72.3 98.33L73.43 97.46L74.6 96.6L75.78 95.75L76.99 94.9L78.23 94.07L79.49 93.25L80.77 92.44L82.08 91.63L83.41 90.84L84.76 90.05L86.14 89.28L87.55 88.51L88.97 87.75L90.43 87.01L91.9 86.27L61.97 82.04L33.8 92.61L2.11 75L75 25L50 0L125 25L169.72 68.2ZM78.32 48.39L86.36 47.33L86.9 43.46L75.63 43.46L78.32 48.39Z" id="a1X4HeHtoF"></path></defs><g><g><g><use xlink:href="#a1X4HeHtoF" opacity="1" fill="#dedede" fill-opacity="1"></use><g><use xlink:href="#a1X4HeHtoF" opacity="1" fill-opacity="0" stroke="#421557" stroke-width="5" stroke-opacity="1"></use></g></g></g></g></svg>